{
  "source": "C:\\Users\\Peter\\Desktop\\stuff\\MIUN\\quantitative_research\\video_compression\\videos\\BVI-HD\\BVI-HD_CDVL_videos\\ORIG\\Boxing_1920x1080_30fps.mp4",
  "output": "C:\\Users\\Peter\\Desktop\\stuff\\MIUN\\quantitative_research\\video_compression\\compressed_videos\\BVI-HD\\hevc\\1\\Boxing_1920x1080_30fps_hevc.mp4",
  "codec": "hevc",
  "ok": "Input #0, mov,mp4,m4a,3gp,3g2,mj2, from 'C:\\Users\\Peter\\Desktop\\stuff\\MIUN\\quantitative_research\\video_compression\\videos\\BVI-HD\\BVI-HD_CDVL_videos\\ORIG\\Boxing_1920x1080_30fps.mp4':\n  Metadata:\n    major_brand     : isom\n    minor_version   : 512\n    compatible_brands: isomiso2avc1mp41\n    encoder         : Lavf54.28.101\n  Duration: 00:00:05.00, start: 0.000000, bitrate: 238363 kb/s\n  Stream #0:0[0x1](und): Video: h264 (High 4:4:4 Predictive) (avc1 / 0x31637661), yuv420p(progressive), 1920x1080, 238359 kb/s, 30 fps, 30 tbr, 30 tbn (default)\n    Metadata:\n      handler_name    : VideoHandler\n      vendor_id       : [0][0][0][0]\n[out#0/mp4 @ 000002bca95bc580] Codec AVOption b:a (set bitrate (in bits/s)) has not been used for any stream. The most likely reason is either wrong type (e.g. a video option with no video streams) or that it is a private option of some decoder which was not actually used for any stream.\nStream mapping:\n  Stream #0:0 -> #0:0 (h264 (native) -> hevc (libx265))\nPress [q] to stop, [?] for help\n[libx265 @ 000002bca9eab240] Unknown option: \"aq-mode.\nx265 [info]: HEVC encoder version 4.1+190-8f11c33ac\nx265 [info]: build info [Windows][GCC 15.1.0][64 bit] 10bit\nx265 [info]: using cpu capabilities: MMX2 SSE2Fast LZCNT SSSE3 SSE4.2 AVX FMA3 BMI2 AVX2\nx265 [info]: Main 10 profile, Level-4 (Main tier)\nx265 [info]: Thread pool created using 12 threads\nx265 [info]: Slices                              : 1\nx265 [info]: frame threads / pool features       : 3 / wpp(17 rows)\nx265 [info]: Coding QT: max CU size, min CU size : 64 / 8\nx265 [info]: Residual QT: max TU size, max depth : 32 / 1 inter / 1 intra\nx265 [info]: ME / range / subpel / merge         : star / 57 / 3 / 3\nx265 [info]: Keyframe min / max / scenecut / bias  : 25 / 250 / 40 / 5.00 \nx265 [info]: Lookahead / bframes / badapt        : 25 / 4 / 2\nx265 [info]: b-pyramid / weightp / weightb       : 1 / 1 / 0\nx265 [info]: References / ref-limit  cu / depth  : 4 / on / on\nx265 [info]: AQ: mode / str / qg-size / cu-tree  : 2 / 1.0 / 32 / 1\nx265 [info]: Rate Control / qCompress            : ABR-1000 kbps / 0.60\nx265 [info]: VBV/HRD buffer / max-rate / init    : 1000 / 1000 / 0.750\nx265 [info]: tools: rect limit-modes rd=4 psy-rd=2.00 rdoq=2 psy-rdoq=1.00\nx265 [info]: tools: rskip mode=1 signhide tmvp strong-intra-smoothing lslices=4\nx265 [info]: tools: deblock sao dhdr10-info\nOutput #0, mp4, to 'C:\\Users\\Peter\\Desktop\\stuff\\MIUN\\quantitative_research\\video_compression\\compressed_videos\\BVI-HD\\hevc\\1\\Boxing_1920x1080_30fps_hevc.mp4':\n  Metadata:\n    major_brand     : isom\n    minor_version   : 512\n    compatible_brands: isomiso2avc1mp41\n    encoder         : Lavf62.3.100\n  Stream #0:0(und): Video: hevc (hev1 / 0x31766568), yuv420p10le(tv, progressive), 1920x1080, q=2-31, 1000 kb/s, 30 fps, 15360 tbn (default)\n    Metadata:\n      encoder         : Lavc62.11.100 libx265\n      handler_name    : VideoHandler\n      vendor_id       : [0][0][0][0]\n    Side data:\n      cpb: bitrate max/min/avg: 1000000/0/1000000 buffer size: 1000000 vbv_delay: N/A\nframe=    0 fps=0.0 q=0.0 size=       0KiB time=N/A bitrate=N/A speed=N/A elapsed=0:00:00.50    \nframe=    0 fps=0.0 q=0.0 size=       0KiB time=N/A bitrate=N/A speed=N/A elapsed=0:00:01.02    \nframe=    0 fps=0.0 q=0.0 size=       0KiB time=N/A bitrate=N/A speed=N/A elapsed=0:00:01.57    \nframe=    0 fps=0.0 q=0.0 size=       0KiB time=N/A bitrate=N/A speed=N/A elapsed=0:00:02.10    \nframe=    0 fps=0.0 q=0.0 size=       0KiB time=N/A bitrate=N/A speed=N/A elapsed=0:00:02.61    \nframe=    0 fps=0.0 q=0.0 size=       0KiB time=N/A bitrate=N/A speed=N/A elapsed=0:00:03.16    \nframe=    0 fps=0.0 q=0.0 size=       0KiB time=N/A bitrate=N/A speed=N/A elapsed=0:00:03.70    \nframe=    0 fps=0.0 q=0.0 size=       0KiB time=N/A bitrate=N/A speed=N/A elapsed=0:00:04.23    \nframe=    0 fps=0.0 q=0.0 size=       0KiB time=N/A bitrate=N/A speed=N/A elapsed=0:00:04.76    \nframe=    0 fps=0.0 q=0.0 size=       0KiB time=N/A bitrate=N/A speed=N/A elapsed=0:00:05.29    \nframe=    0 fps=0.0 q=0.0 size=       0KiB time=N/A bitrate=N/A speed=N/A elapsed=0:00:05.82    \nframe=    0 fps=0.0 q=0.0 size=       0KiB time=N/A bitrate=N/A speed=N/A elapsed=0:00:06.35    \nframe=    1 fps=0.1 q=41.6 size=       0KiB time=-00:00:00.03 bitrate=N/A speed=N/A elapsed=0:00:06.92    \nframe=    1 fps=0.1 q=41.6 size=       0KiB time=-00:00:00.03 bitrate=N/A speed=N/A elapsed=0:00:07.49    \nframe=    2 fps=0.2 q=46.0 size=       0KiB time=00:00:00.00 bitrate=N/A speed=   0x elapsed=0:00:08.01    \nframe=    2 fps=0.2 q=46.0 size=       0KiB time=00:00:00.00 bitrate=N/A speed=   0x elapsed=0:00:08.57    \nframe=    2 fps=0.2 q=46.0 size=       0KiB time=00:00:00.00 bitrate=N/A speed=   0x elapsed=0:00:09.09    \nframe=    2 fps=0.2 q=46.0 size=       0KiB time=00:00:00.00 bitrate=N/A speed=   0x elapsed=0:00:09.61    \nframe=    2 fps=0.2 q=46.0 size=       0KiB time=00:00:00.00 bitrate=N/A speed=   0x elapsed=0:00:10.17    \nframe=    3 fps=0.3 q=47.2 size=       0KiB time=00:00:00.03 bitrate=  10.6kbits/s speed=0.00312x elapsed=0:00:10.69    \nframe=    3 fps=0.3 q=47.2 size=       0KiB time=00:00:00.03 bitrate=  10.6kbits/s speed=0.00297x elapsed=0:00:11.21    \nframe=    3 fps=0.3 q=47.2 size=       0KiB time=00:00:00.03 bitrate=  10.6kbits/s speed=0.00284x elapsed=0:00:11.73    \nframe=    4 fps=0.3 q=49.9 size=       0KiB time=00:00:00.06 bitrate=   5.3kbits/s speed=0.00545x elapsed=0:00:12.23    \nframe=    5 fps=0.4 q=47.5 size=       0KiB time=00:00:00.10 bitrate=   3.5kbits/s speed=0.00784x elapsed=0:00:12.76    \nframe=    5 fps=0.4 q=47.5 size=       0KiB time=00:00:00.10 bitrate=   3.5kbits/s speed=0.00751x elapsed=0:00:13.30    \nframe=    6 fps=0.4 q=43.4 size=       0KiB time=00:00:00.13 bitrate=   2.6kbits/s speed=0.00964x elapsed=0:00:13.82    \nframe=    6 fps=0.4 q=43.4 size=       0KiB time=00:00:00.13 bitrate=   2.6kbits/s speed=0.00929x elapsed=0:00:14.34    \nframe=    7 fps=0.5 q=45.9 size=       0KiB time=00:00:00.16 bitrate=   2.1kbits/s speed=0.0112x elapsed=0:00:14.87    \nframe=    7 fps=0.5 q=45.9 size=       0KiB time=00:00:00.16 bitrate=   2.1kbits/s speed=0.0108x elapsed=0:00:15.44    \nframe=    7 fps=0.4 q=45.9 size=       0KiB time=00:00:00.16 bitrate=   2.1kbits/s speed=0.0104x elapsed=0:00:15.95    \nframe=    8 fps=0.5 q=46.3 size=       0KiB time=00:00:00.20 bitrate=   1.8kbits/s speed=0.0121x elapsed=0:00:16.51    \nframe=    9 fps=0.5 q=46.4 size=       0KiB time=00:00:00.23 bitrate=   1.5kbits/s speed=0.0137x elapsed=0:00:17.05    \nframe=    9 fps=0.5 q=46.4 size=       0KiB time=00:00:00.23 bitrate=   1.5kbits/s speed=0.0133x elapsed=0:00:17.56    \nframe=   10 fps=0.6 q=45.1 size=       0KiB time=00:00:00.26 bitrate=   1.3kbits/s speed=0.0147x elapsed=0:00:18.08    \nframe=   10 fps=0.5 q=45.1 size=       0KiB time=00:00:00.26 bitrate=   1.3kbits/s speed=0.0143x elapsed=0:00:18.66    \nframe=   10 fps=0.5 q=45.1 size=       0KiB time=00:00:00.26 bitrate=   1.3kbits/s speed=0.0139x elapsed=0:00:19.21    \nframe=   10 fps=0.5 q=45.1 size=       0KiB time=00:00:00.26 bitrate=   1.3kbits/s speed=0.0135x elapsed=0:00:19.77    \nframe=   10 fps=0.5 q=45.1 size=       0KiB time=00:00:00.26 bitrate=   1.3kbits/s speed=0.0131x elapsed=0:00:20.28    \nframe=   11 fps=0.5 q=40.7 size=       0KiB time=00:00:00.30 bitrate=   1.2kbits/s speed=0.0144x elapsed=0:00:20.83    \nframe=   12 fps=0.6 q=44.3 size=       0KiB time=00:00:00.33 bitrate=   1.1kbits/s speed=0.0156x elapsed=0:00:21.37    \nframe=   12 fps=0.5 q=44.3 size=       0KiB time=00:00:00.33 bitrate=   1.1kbits/s speed=0.0152x elapsed=0:00:21.95    \nframe=   12 fps=0.5 q=44.3 size=       0KiB time=00:00:00.33 bitrate=   1.1kbits/s speed=0.0148x elapsed=0:00:22.47    \nframe=   12 fps=0.5 q=44.3 size=       0KiB time=00:00:00.33 bitrate=   1.1kbits/s speed=0.0145x elapsed=0:00:22.99    \nframe=   13 fps=0.6 q=44.9 size=       0KiB time=00:00:00.36 bitrate=   1.0kbits/s speed=0.0156x elapsed=0:00:23.52    \nframe=   14 fps=0.6 q=44.7 size=       0KiB time=00:00:00.40 bitrate=   0.9kbits/s speed=0.0166x elapsed=0:00:24.03    \nframe=   14 fps=0.6 q=44.7 size=       0KiB time=00:00:00.40 bitrate=   0.9kbits/s speed=0.0163x elapsed=0:00:24.55    \nframe=   15 fps=0.6 q=40.6 size=       0KiB time=00:00:00.43 bitrate=   0.8kbits/s speed=0.0172x elapsed=0:00:25.12    \nframe=   15 fps=0.6 q=40.6 size=       0KiB time=00:00:00.43 bitrate=   0.8kbits/s speed=0.0169x elapsed=0:00:25.64    \nframe=   16 fps=0.6 q=42.7 size=       0KiB time=00:00:00.46 bitrate=   0.8kbits/s speed=0.0178x elapsed=0:00:26.16    \nframe=   16 fps=0.6 q=42.7 size=       0KiB time=00:00:00.46 bitrate=   0.8kbits/s speed=0.0175x elapsed=0:00:26.70    \nframe=   16 fps=0.6 q=42.7 size=       0KiB time=00:00:00.46 bitrate=   0.8kbits/s speed=0.0171x elapsed=0:00:27.24    \nframe=   17 fps=0.6 q=44.1 size=       0KiB time=00:00:00.50 bitrate=   0.7kbits/s speed=0.018x elapsed=0:00:27.78    \nframe=   17 fps=0.6 q=44.1 size=       0KiB time=00:00:00.50 bitrate=   0.7kbits/s speed=0.0176x elapsed=0:00:28.37    \nframe=   18 fps=0.6 q=44.1 size=       0KiB time=00:00:00.53 bitrate=   0.7kbits/s speed=0.0185x elapsed=0:00:28.88    \nframe=   18 fps=0.6 q=44.1 size=       0KiB time=00:00:00.53 bitrate=   0.7kbits/s speed=0.0181x elapsed=0:00:29.44    \nframe=   19 fps=0.6 q=40.0 size=       0KiB time=00:00:00.56 bitrate=   0.6kbits/s speed=0.0189x elapsed=0:00:29.95    \nframe=   19 fps=0.6 q=40.0 size=       0KiB time=00:00:00.56 bitrate=   0.6kbits/s speed=0.0186x elapsed=0:00:30.48    \nframe=   19 fps=0.6 q=40.0 size=       0KiB time=00:00:00.56 bitrate=   0.6kbits/s speed=0.0183x elapsed=0:00:31.02    \nframe=   19 fps=0.6 q=40.0 size=       0KiB time=00:00:00.56 bitrate=   0.6kbits/s speed=0.018x elapsed=0:00:31.54    \nframe=   20 fps=0.6 q=42.1 size=       0KiB time=00:00:00.60 bitrate=   0.6kbits/s speed=0.0187x elapsed=0:00:32.08    \nframe=   21 fps=0.6 q=43.6 size=       0KiB time=00:00:00.63 bitrate=   0.6kbits/s speed=0.0194x elapsed=0:00:32.60    \nframe=   21 fps=0.6 q=43.6 size=       0KiB time=00:00:00.63 bitrate=   0.6kbits/s speed=0.0191x elapsed=0:00:33.13    \nframe=   22 fps=0.7 q=40.0 size=       0KiB time=00:00:00.66 bitrate=   0.5kbits/s speed=0.0198x elapsed=0:00:33.64    \nframe=   22 fps=0.6 q=40.0 size=       0KiB time=00:00:00.66 bitrate=   0.5kbits/s speed=0.0195x elapsed=0:00:34.16    \nframe=   22 fps=0.6 q=40.0 size=       0KiB time=00:00:00.66 bitrate=   0.5kbits/s speed=0.0192x elapsed=0:00:34.68    \nframe=   23 fps=0.7 q=43.2 size=       0KiB time=00:00:00.70 bitrate=   0.5kbits/s speed=0.0199x elapsed=0:00:35.22    \nframe=   24 fps=0.7 q=40.5 size=       0KiB time=00:00:00.73 bitrate=   0.5kbits/s speed=0.0205x elapsed=0:00:35.74    \nframe=   24 fps=0.7 q=40.5 size=       0KiB time=00:00:00.73 bitrate=   0.5kbits/s speed=0.0202x elapsed=0:00:36.25    \nframe=   24 fps=0.7 q=40.5 size=       0KiB time=00:00:00.73 bitrate=   0.5kbits/s speed=0.0199x elapsed=0:00:36.80    \nframe=   25 fps=0.7 q=41.3 size=       0KiB time=00:00:00.76 bitrate=   0.5kbits/s speed=0.0205x elapsed=0:00:37.34    \nframe=   25 fps=0.7 q=41.3 size=       0KiB time=00:00:00.76 bitrate=   0.5kbits/s speed=0.0202x elapsed=0:00:37.93    \nframe=   25 fps=0.6 q=41.3 size=       0KiB time=00:00:00.76 bitrate=   0.5kbits/s speed=0.0199x elapsed=0:00:38.55    \nframe=   25 fps=0.6 q=41.3 size=       0KiB time=00:00:00.76 bitrate=   0.5kbits/s speed=0.0196x elapsed=0:00:39.14    \nframe=   25 fps=0.6 q=41.3 size=       0KiB time=00:00:00.76 bitrate=   0.5kbits/s speed=0.0193x elapsed=0:00:39.66    \nframe=   26 fps=0.6 q=43.4 size=       0KiB time=00:00:00.80 bitrate=   0.4kbits/s speed=0.0199x elapsed=0:00:40.21    \nframe=   26 fps=0.6 q=43.4 size=       0KiB time=00:00:00.80 bitrate=   0.4kbits/s speed=0.0196x elapsed=0:00:40.72    \nframe=   26 fps=0.6 q=43.4 size=       0KiB time=00:00:00.80 bitrate=   0.4kbits/s speed=0.0194x elapsed=0:00:41.24    \nframe=   27 fps=0.6 q=40.3 size=       0KiB time=00:00:00.83 bitrate=   0.4kbits/s speed=0.02x elapsed=0:00:41.75    \nframe=   28 fps=0.7 q=43.4 size=       0KiB time=00:00:00.86 bitrate=   0.4kbits/s speed=0.0205x elapsed=0:00:42.26    \nframe=   28 fps=0.7 q=43.4 size=       0KiB time=00:00:00.86 bitrate=   0.4kbits/s speed=0.0202x elapsed=0:00:42.83    \nframe=   28 fps=0.6 q=43.4 size=       0KiB time=00:00:00.86 bitrate=   0.4kbits/s speed=0.02x elapsed=0:00:43.40    \nframe=   28 fps=0.6 q=43.4 size=       0KiB time=00:00:00.86 bitrate=   0.4kbits/s speed=0.0197x elapsed=0:00:43.93    \nframe=   28 fps=0.6 q=43.4 size=       0KiB time=00:00:00.86 bitrate=   0.4kbits/s speed=0.0195x elapsed=0:00:44.49    \nframe=   29 fps=0.6 q=39.7 size=       0KiB time=00:00:00.90 bitrate=   0.4kbits/s speed=0.02x elapsed=0:00:45.05    \nframe=   29 fps=0.6 q=39.7 size=       0KiB time=00:00:00.90 bitrate=   0.4kbits/s speed=0.0197x elapsed=0:00:45.58    \nframe=   29 fps=0.6 q=39.7 size=       0KiB time=00:00:00.90 bitrate=   0.4kbits/s speed=0.0195x elapsed=0:00:46.14    \nframe=   29 fps=0.6 q=39.7 size=       0KiB time=00:00:00.90 bitrate=   0.4kbits/s speed=0.0193x elapsed=0:00:46.68    \nframe=   30 fps=0.6 q=43.2 size=       0KiB time=00:00:00.93 bitrate=   0.4kbits/s speed=0.0198x elapsed=0:00:47.20    \nframe=   30 fps=0.6 q=43.2 size=       0KiB time=00:00:00.93 bitrate=   0.4kbits/s speed=0.0196x elapsed=0:00:47.73    \nframe=   31 fps=0.6 q=39.8 size=       0KiB time=00:00:00.96 bitrate=   0.4kbits/s speed=0.02x elapsed=0:00:48.27    \nframe=   31 fps=0.6 q=39.8 size=       0KiB time=00:00:00.96 bitrate=   0.4kbits/s speed=0.0198x elapsed=0:00:48.81    \nframe=   31 fps=0.6 q=39.8 size=       0KiB time=00:00:00.96 bitrate=   0.4kbits/s speed=0.0196x elapsed=0:00:49.35    \nframe=   32 fps=0.6 q=42.0 size=       0KiB time=00:00:01.00 bitrate=   0.4kbits/s speed=0.02x elapsed=0:00:49.87    \nframe=   32 fps=0.6 q=42.0 size=       0KiB time=00:00:01.00 bitrate=   0.4kbits/s speed=0.0198x elapsed=0:00:50.42    \nframe=   32 fps=0.6 q=42.0 size=       0KiB time=00:00:01.00 bitrate=   0.4kbits/s speed=0.0196x elapsed=0:00:50.96    \nframe=   33 fps=0.6 q=42.5 size=       0KiB time=00:00:01.03 bitrate=   0.3kbits/s speed=0.0201x elapsed=0:00:51.51    \nframe=   33 fps=0.6 q=42.5 size=       0KiB time=00:00:01.03 bitrate=   0.3kbits/s speed=0.0199x elapsed=0:00:52.03    \nframe=   34 fps=0.6 q=39.8 size=       0KiB time=00:00:01.06 bitrate=   0.3kbits/s speed=0.0203x elapsed=0:00:52.57    \nframe=   34 fps=0.6 q=39.8 size=       0KiB time=00:00:01.06 bitrate=   0.3kbits/s speed=0.0201x elapsed=0:00:53.09    \nframe=   34 fps=0.6 q=39.8 size=       0KiB time=00:00:01.06 bitrate=   0.3kbits/s speed=0.0199x elapsed=0:00:53.61    \nframe=   35 fps=0.6 q=40.3 size=       0KiB time=00:00:01.10 bitrate=   0.3kbits/s speed=0.0203x elapsed=0:00:54.13    \nframe=   36 fps=0.7 q=42.5 size=       0KiB time=00:00:01.13 bitrate=   0.3kbits/s speed=0.0207x elapsed=0:00:54.66    \nframe=   36 fps=0.7 q=42.5 size=       0KiB time=00:00:01.13 bitrate=   0.3kbits/s speed=0.0205x elapsed=0:00:55.23    \nframe=   37 fps=0.7 q=40.2 size=       0KiB time=00:00:01.16 bitrate=   0.3kbits/s speed=0.0209x elapsed=0:00:55.76    \nframe=   38 fps=0.7 q=41.0 size=       0KiB time=00:00:01.20 bitrate=   0.3kbits/s speed=0.0213x elapsed=0:00:56.27    \nframe=   38 fps=0.7 q=41.0 size=       0KiB time=00:00:01.20 bitrate=   0.3kbits/s speed=0.0211x elapsed=0:00:56.83    \nframe=   38 fps=0.7 q=41.0 size=       0KiB time=00:00:01.20 bitrate=   0.3kbits/s speed=0.0209x elapsed=0:00:57.37    \nframe=   38 fps=0.7 q=41.0 size=       0KiB time=00:00:01.20 bitrate=   0.3kbits/s speed=0.0207x elapsed=0:00:57.89    \nframe=   39 fps=0.7 q=43.0 size=       0KiB time=00:00:01.23 bitrate=   0.3kbits/s speed=0.0211x elapsed=0:00:58.42    \nframe=   40 fps=0.7 q=42.1 size=       0KiB time=00:00:01.26 bitrate=   0.3kbits/s speed=0.0215x elapsed=0:00:58.93    \nframe=   40 fps=0.7 q=42.1 size=       0KiB time=00:00:01.26 bitrate=   0.3kbits/s speed=0.0213x elapsed=0:00:59.48    \nframe=   41 fps=0.7 q=39.1 size=       0KiB time=00:00:01.30 bitrate=   0.3kbits/s speed=0.0217x elapsed=0:01:00.03    \nframe=   41 fps=0.7 q=39.1 size=       0KiB time=00:00:01.30 bitrate=   0.3kbits/s speed=0.0214x elapsed=0:01:00.65    \nframe=   41 fps=0.7 q=39.1 size=       0KiB time=00:00:01.30 bitrate=   0.3kbits/s speed=0.0213x elapsed=0:01:01.15    \nframe=   42 fps=0.7 q=40.8 size=       0KiB time=00:00:01.33 bitrate=   0.3kbits/s speed=0.0216x elapsed=0:01:01.68    \nframe=   42 fps=0.7 q=40.8 size=       0KiB time=00:00:01.33 bitrate=   0.3kbits/s speed=0.0214x elapsed=0:01:02.18    \nframe=   43 fps=0.7 q=41.8 size=       0KiB time=00:00:01.36 bitrate=   0.3kbits/s speed=0.0218x elapsed=0:01:02.71    \nframe=   43 fps=0.7 q=41.8 size=       0KiB time=00:00:01.36 bitrate=   0.3kbits/s speed=0.0216x elapsed=0:01:03.22    \nframe=   43 fps=0.7 q=41.8 size=       0KiB time=00:00:01.36 bitrate=   0.3kbits/s speed=0.0214x elapsed=0:01:03.74    \nframe=   44 fps=0.7 q=42.6 size=       0KiB time=00:00:01.40 bitrate=   0.3kbits/s speed=0.0218x elapsed=0:01:04.26    \nframe=   44 fps=0.7 q=42.6 size=       0KiB time=00:00:01.40 bitrate=   0.3kbits/s speed=0.0216x elapsed=0:01:04.76    \nframe=   45 fps=0.7 q=39.3 size=       0KiB time=00:00:01.43 bitrate=   0.2kbits/s speed=0.0219x elapsed=0:01:05.30    \nframe=   46 fps=0.7 q=41.0 size=       0KiB time=00:00:01.46 bitrate=   0.2kbits/s speed=0.0223x elapsed=0:01:05.85    \nframe=   46 fps=0.7 q=41.0 size=       0KiB time=00:00:01.46 bitrate=   0.2kbits/s speed=0.0221x elapsed=0:01:06.36    \nframe=   46 fps=0.7 q=41.0 size=       0KiB time=00:00:01.46 bitrate=   0.2kbits/s speed=0.0219x elapsed=0:01:06.87    \nframe=   46 fps=0.7 q=41.0 size=       0KiB time=00:00:01.46 bitrate=   0.2kbits/s speed=0.0218x elapsed=0:01:07.41    \nframe=   46 fps=0.7 q=41.0 size=       0KiB time=00:00:01.46 bitrate=   0.2kbits/s speed=0.0216x elapsed=0:01:07.96    \nframe=   46 fps=0.7 q=41.0 size=       0KiB time=00:00:01.46 bitrate=   0.2kbits/s speed=0.0214x elapsed=0:01:08.48    \nframe=   46 fps=0.7 q=41.0 size=       0KiB time=00:00:01.46 bitrate=   0.2kbits/s speed=0.0213x elapsed=0:01:09.00    \nframe=   46 fps=0.7 q=41.0 size=       0KiB time=00:00:01.46 bitrate=   0.2kbits/s speed=0.0211x elapsed=0:01:09.61    \nframe=   46 fps=0.7 q=41.0 size=       0KiB time=00:00:01.46 bitrate=   0.2kbits/s speed=0.0209x elapsed=0:01:10.28    \nframe=   47 fps=0.7 q=42.3 size=       0KiB time=00:00:01.50 bitrate=   0.2kbits/s speed=0.0212x elapsed=0:01:10.88    \nframe=   47 fps=0.7 q=42.3 size=       0KiB time=00:00:01.50 bitrate=   0.2kbits/s speed=0.021x elapsed=0:01:11.45    \nframe=   47 fps=0.7 q=42.3 size=       0KiB time=00:00:01.50 bitrate=   0.2kbits/s speed=0.0208x elapsed=0:01:12.09    \nframe=   47 fps=0.6 q=42.3 size=       0KiB time=00:00:01.50 bitrate=   0.2kbits/s speed=0.0206x elapsed=0:01:12.66    \nframe=   48 fps=0.7 q=38.8 size=       0KiB time=00:00:01.53 bitrate=   0.2kbits/s speed=0.0209x elapsed=0:01:13.21    \nframe=   48 fps=0.7 q=38.8 size=       0KiB time=00:00:01.53 bitrate=   0.2kbits/s speed=0.0208x elapsed=0:01:13.74    \nframe=   48 fps=0.6 q=38.8 size=       0KiB time=00:00:01.53 bitrate=   0.2kbits/s speed=0.0206x elapsed=0:01:14.33    \nframe=   48 fps=0.6 q=38.8 size=       0KiB time=00:00:01.53 bitrate=   0.2kbits/s speed=0.0205x elapsed=0:01:14.92    \nframe=   49 fps=0.6 q=40.0 size=       0KiB time=00:00:01.56 bitrate=   0.2kbits/s speed=0.0208x elapsed=0:01:15.45    \nframe=   49 fps=0.6 q=40.0 size=       0KiB time=00:00:01.56 bitrate=   0.2kbits/s speed=0.0206x elapsed=0:01:15.97    \nframe=   49 fps=0.6 q=40.0 size=       0KiB time=00:00:01.56 bitrate=   0.2kbits/s speed=0.0205x elapsed=0:01:16.50    \nframe=   50 fps=0.6 q=42.8 size=       0KiB time=00:00:01.60 bitrate=   0.2kbits/s speed=0.0208x elapsed=0:01:17.05    \nframe=   50 fps=0.6 q=42.8 size=       0KiB time=00:00:01.60 bitrate=   0.2kbits/s speed=0.0206x elapsed=0:01:17.57    \nframe=   51 fps=0.7 q=39.4 size=       0KiB time=00:00:01.63 bitrate=   0.2kbits/s speed=0.0209x elapsed=0:01:18.14    \nframe=   51 fps=0.6 q=39.4 size=       0KiB time=00:00:01.63 bitrate=   0.2kbits/s speed=0.0208x elapsed=0:01:18.67    \nframe=   52 fps=0.7 q=40.5 size=       0KiB time=00:00:01.66 bitrate=   0.2kbits/s speed=0.021x elapsed=0:01:19.19    \nframe=   53 fps=0.7 q=42.9 size=       0KiB time=00:00:01.70 bitrate=   0.2kbits/s speed=0.0213x elapsed=0:01:19.72    \nframe=   53 fps=0.7 q=42.9 size=       0KiB time=00:00:01.70 bitrate=   0.2kbits/s speed=0.0212x elapsed=0:01:20.25    \nframe=   54 fps=0.7 q=42.2 size=       0KiB time=00:00:01.73 bitrate=   0.2kbits/s speed=0.0215x elapsed=0:01:20.79    \nframe=   54 fps=0.7 q=42.2 size=       0KiB time=00:00:01.73 bitrate=   0.2kbits/s speed=0.0213x elapsed=0:01:21.32    \nframe=   55 fps=0.7 q=39.0 size=       0KiB time=00:00:01.76 bitrate=   0.2kbits/s speed=0.0216x elapsed=0:01:21.84    \nframe=   55 fps=0.7 q=39.0 size=       0KiB time=00:00:01.76 bitrate=   0.2kbits/s speed=0.0215x elapsed=0:01:22.35    \nframe=   55 fps=0.7 q=39.0 size=       0KiB time=00:00:01.76 bitrate=   0.2kbits/s speed=0.0213x elapsed=0:01:22.89    \nframe=   56 fps=0.7 q=40.8 size=       0KiB time=00:00:01.80 bitrate=   0.2kbits/s speed=0.0216x elapsed=0:01:23.41    \nframe=   56 fps=0.7 q=40.8 size=       0KiB time=00:00:01.80 bitrate=   0.2kbits/s speed=0.0214x elapsed=0:01:23.92    \nframe=   56 fps=0.7 q=40.8 size=       0KiB time=00:00:01.80 bitrate=   0.2kbits/s speed=0.0213x elapsed=0:01:24.44    \nframe=   56 fps=0.7 q=40.8 size=       0KiB time=00:00:01.80 bitrate=   0.2kbits/s speed=0.0212x elapsed=0:01:24.98    \nframe=   57 fps=0.7 q=42.0 size=       0KiB time=00:00:01.83 bitrate=   0.2kbits/s speed=0.0214x elapsed=0:01:25.49    \nframe=   57 fps=0.7 q=42.0 size=       0KiB time=00:00:01.83 bitrate=   0.2kbits/s speed=0.0213x elapsed=0:01:26.04    \nframe=   58 fps=0.7 q=38.6 size=       0KiB time=00:00:01.86 bitrate=   0.2kbits/s speed=0.0216x elapsed=0:01:26.57    \nframe=   58 fps=0.7 q=38.6 size=       0KiB time=00:00:01.86 bitrate=   0.2kbits/s speed=0.0214x elapsed=0:01:27.11    \nframe=   59 fps=0.7 q=41.3 size=       0KiB time=00:00:01.90 bitrate=   0.2kbits/s speed=0.0217x elapsed=0:01:27.65    \nframe=   60 fps=0.7 q=42.5 size=       0KiB time=00:00:01.93 bitrate=   0.2kbits/s speed=0.0219x elapsed=0:01:28.20    \nframe=   61 fps=0.7 q=42.3 size=       0KiB time=00:00:01.96 bitrate=   0.2kbits/s speed=0.0222x elapsed=0:01:28.72    \nframe=   61 fps=0.7 q=42.3 size=       0KiB time=00:00:01.96 bitrate=   0.2kbits/s speed=0.022x elapsed=0:01:29.26    \nframe=   62 fps=0.7 q=42.9 size=       0KiB time=00:00:02.00 bitrate=   0.2kbits/s speed=0.0223x elapsed=0:01:29.79    \nframe=   63 fps=0.7 q=38.9 size=       0KiB time=00:00:02.03 bitrate=   0.2kbits/s speed=0.0225x elapsed=0:01:30.35    \nframe=   63 fps=0.7 q=38.9 size=       0KiB time=00:00:02.03 bitrate=   0.2kbits/s speed=0.0224x elapsed=0:01:30.89    \nframe=   63 fps=0.7 q=38.9 size=       0KiB time=00:00:02.03 bitrate=   0.2kbits/s speed=0.0222x elapsed=0:01:31.48    \nframe=   64 fps=0.7 q=43.4 size=       0KiB time=00:00:02.06 bitrate=   0.2kbits/s speed=0.0225x elapsed=0:01:32.02    \nframe=   64 fps=0.7 q=43.4 size=       0KiB time=00:00:02.06 bitrate=   0.2kbits/s speed=0.0223x elapsed=0:01:32.56    \nframe=   66 fps=0.7 q=41.2 size=       0KiB time=00:00:02.13 bitrate=   0.2kbits/s speed=0.0229x elapsed=0:01:33.07    \nframe=   66 fps=0.7 q=41.2 size=       0KiB time=00:00:02.13 bitrate=   0.2kbits/s speed=0.0228x elapsed=0:01:33.58    \nframe=   67 fps=0.7 q=43.0 size=       0KiB time=00:00:02.16 bitrate=   0.2kbits/s speed=0.023x elapsed=0:01:34.12    \nframe=   68 fps=0.7 q=42.7 size=     256KiB time=00:00:02.20 bitrate= 953.4kbits/s speed=0.0232x elapsed=0:01:34.64    \nframe=   68 fps=0.7 q=42.7 size=     256KiB time=00:00:02.20 bitrate= 953.4kbits/s speed=0.0231x elapsed=0:01:35.18    \nframe=   69 fps=0.7 q=39.3 size=     256KiB time=00:00:02.23 bitrate= 939.2kbits/s speed=0.0233x elapsed=0:01:35.68    \nframe=   69 fps=0.7 q=39.3 size=     256KiB time=00:00:02.23 bitrate= 939.2kbits/s speed=0.0232x elapsed=0:01:36.24    \nframe=   69 fps=0.7 q=39.3 size=     256KiB time=00:00:02.23 bitrate= 939.2kbits/s speed=0.0231x elapsed=0:01:36.77    \nframe=   70 fps=0.7 q=41.0 size=     256KiB time=00:00:02.26 bitrate= 925.4kbits/s speed=0.0233x elapsed=0:01:37.28    \nframe=   71 fps=0.7 q=42.8 size=     256KiB time=00:00:02.30 bitrate= 912.0kbits/s speed=0.0235x elapsed=0:01:37.80    \nframe=   71 fps=0.7 q=42.8 size=     256KiB time=00:00:02.30 bitrate= 912.0kbits/s speed=0.0234x elapsed=0:01:38.32    \nframe=   71 fps=0.7 q=42.8 size=     256KiB time=00:00:02.30 bitrate= 912.0kbits/s speed=0.0233x elapsed=0:01:38.84    \nframe=   72 fps=0.7 q=42.4 size=     256KiB time=00:00:02.33 bitrate= 898.9kbits/s speed=0.0235x elapsed=0:01:39.35    \nframe=   73 fps=0.7 q=38.4 size=     256KiB time=00:00:02.36 bitrate= 886.3kbits/s speed=0.0237x elapsed=0:01:39.87    \nframe=   74 fps=0.7 q=40.9 size=     256KiB time=00:00:02.40 bitrate= 874.0kbits/s speed=0.0239x elapsed=0:01:40.40    \nframe=   74 fps=0.7 q=40.9 size=     256KiB time=00:00:02.40 bitrate= 874.0kbits/s speed=0.0238x elapsed=0:01:40.99    \nframe=   74 fps=0.7 q=40.9 size=     256KiB time=00:00:02.40 bitrate= 874.0kbits/s speed=0.0236x elapsed=0:01:41.53    \nframe=   74 fps=0.7 q=40.9 size=     256KiB time=00:00:02.40 bitrate= 874.0kbits/s speed=0.0235x elapsed=0:01:42.07    \nframe=   76 fps=0.7 q=42.1 size=     256KiB time=00:00:02.46 bitrate= 850.3kbits/s speed=0.024x elapsed=0:01:42.60    \nframe=   77 fps=0.7 q=39.1 size=     256KiB time=00:00:02.50 bitrate= 839.0kbits/s speed=0.0242x elapsed=0:01:43.13    \nframe=   77 fps=0.7 q=39.1 size=     256KiB time=00:00:02.50 bitrate= 839.0kbits/s speed=0.0241x elapsed=0:01:43.64    \nframe=   77 fps=0.7 q=39.1 size=     256KiB time=00:00:02.50 bitrate= 839.0kbits/s speed=0.024x elapsed=0:01:44.18    \nframe=   78 fps=0.7 q=40.7 size=     256KiB time=00:00:02.53 bitrate= 828.0kbits/s speed=0.0242x elapsed=0:01:44.69    \nframe=   79 fps=0.8 q=42.6 size=     256KiB time=00:00:02.56 bitrate= 817.2kbits/s speed=0.0244x elapsed=0:01:45.24    \nframe=   79 fps=0.7 q=42.6 size=     256KiB time=00:00:02.56 bitrate= 817.2kbits/s speed=0.0243x elapsed=0:01:45.77    \nframe=   80 fps=0.8 q=42.6 size=     256KiB time=00:00:02.60 bitrate= 806.7kbits/s speed=0.0245x elapsed=0:01:46.28    \nframe=   80 fps=0.7 q=42.6 size=     256KiB time=00:00:02.60 bitrate= 806.7kbits/s speed=0.0243x elapsed=0:01:46.80    \nframe=   81 fps=0.8 q=39.3 size=     256KiB time=00:00:02.63 bitrate= 796.5kbits/s speed=0.0245x elapsed=0:01:47.35    \nframe=   81 fps=0.8 q=39.3 size=     256KiB time=00:00:02.63 bitrate= 796.5kbits/s speed=0.0244x elapsed=0:01:47.86    \nframe=   82 fps=0.8 q=41.0 size=     256KiB time=00:00:02.66 bitrate= 786.6kbits/s speed=0.0246x elapsed=0:01:48.38    \nframe=   82 fps=0.8 q=41.0 size=     256KiB time=00:00:02.66 bitrate= 786.6kbits/s speed=0.0245x elapsed=0:01:48.91    \nframe=   83 fps=0.8 q=42.8 size=     256KiB time=00:00:02.70 bitrate= 776.9kbits/s speed=0.0247x elapsed=0:01:49.43    \nframe=   83 fps=0.8 q=42.8 size=     256KiB time=00:00:02.70 bitrate= 776.9kbits/s speed=0.0246x elapsed=0:01:49.97    \nframe=   84 fps=0.8 q=42.8 size=     256KiB time=00:00:02.73 bitrate= 767.4kbits/s speed=0.0247x elapsed=0:01:50.49    \nframe=   84 fps=0.8 q=42.8 size=     256KiB time=00:00:02.73 bitrate= 767.4kbits/s speed=0.0246x elapsed=0:01:51.00    \nframe=   84 fps=0.8 q=42.8 size=     256KiB time=00:00:02.73 bitrate= 767.4kbits/s speed=0.0245x elapsed=0:01:51.53    \nframe=   85 fps=0.8 q=39.2 size=     256KiB time=00:00:02.76 bitrate= 758.1kbits/s speed=0.0247x elapsed=0:01:52.06    \nframe=   85 fps=0.8 q=39.2 size=     256KiB time=00:00:02.76 bitrate= 758.1kbits/s speed=0.0246x elapsed=0:01:52.58    \nframe=   86 fps=0.8 q=43.1 size=     256KiB time=00:00:02.80 bitrate= 749.1kbits/s speed=0.0248x elapsed=0:01:53.11    \nframe=   86 fps=0.8 q=43.1 size=     256KiB time=00:00:02.80 bitrate= 749.1kbits/s speed=0.0246x elapsed=0:01:53.63    \nframe=   87 fps=0.8 q=38.9 size=     256KiB time=00:00:02.83 bitrate= 740.3kbits/s speed=0.0248x elapsed=0:01:54.16    \nframe=   87 fps=0.8 q=38.9 size=     256KiB time=00:00:02.83 bitrate= 740.3kbits/s speed=0.0247x elapsed=0:01:54.68    \nframe=   88 fps=0.8 q=41.3 size=     256KiB time=00:00:02.86 bitrate= 731.7kbits/s speed=0.0249x elapsed=0:01:55.19    \nframe=   88 fps=0.8 q=41.3 size=     256KiB time=00:00:02.86 bitrate= 731.7kbits/s speed=0.0248x elapsed=0:01:55.72    \nframe=   88 fps=0.8 q=41.3 size=     256KiB time=00:00:02.86 bitrate= 731.7kbits/s speed=0.0247x elapsed=0:01:56.23    \nframe=   90 fps=0.8 q=42.8 size=     256KiB time=00:00:02.93 bitrate= 715.1kbits/s speed=0.0251x elapsed=0:01:56.75    \nframe=   90 fps=0.8 q=42.8 size=     256KiB time=00:00:02.93 bitrate= 715.1kbits/s speed=0.025x elapsed=0:01:57.28    \nframe=   91 fps=0.8 q=39.0 size=     256KiB time=00:00:02.96 bitrate= 707.0kbits/s speed=0.0252x elapsed=0:01:57.80    \nframe=   91 fps=0.8 q=39.0 size=     256KiB time=00:00:02.96 bitrate= 707.0kbits/s speed=0.0251x elapsed=0:01:58.33    \nframe=   92 fps=0.8 q=40.9 size=     256KiB time=00:00:03.00 bitrate= 699.2kbits/s speed=0.0252x elapsed=0:01:58.85    \nframe=   92 fps=0.8 q=40.9 size=     256KiB time=00:00:03.00 bitrate= 699.2kbits/s speed=0.0251x elapsed=0:01:59.36    \nframe=   92 fps=0.8 q=40.9 size=     256KiB time=00:00:03.00 bitrate= 699.2kbits/s speed=0.025x elapsed=0:01:59.89    \nframe=   93 fps=0.8 q=42.7 size=     256KiB time=00:00:03.03 bitrate= 691.5kbits/s speed=0.0252x elapsed=0:02:00.42    \nframe=   94 fps=0.8 q=39.0 size=     256KiB time=00:00:03.06 bitrate= 684.0kbits/s speed=0.0254x elapsed=0:02:00.94    \nframe=   94 fps=0.8 q=39.0 size=     256KiB time=00:00:03.06 bitrate= 684.0kbits/s speed=0.0252x elapsed=0:02:01.46    \nframe=   95 fps=0.8 q=41.8 size=     256KiB time=00:00:03.10 bitrate= 676.6kbits/s speed=0.0254x elapsed=0:02:01.97    \nframe=   96 fps=0.8 q=43.1 size=     256KiB time=00:00:03.13 bitrate= 669.4kbits/s speed=0.0256x elapsed=0:02:02.49    \nframe=   96 fps=0.8 q=43.1 size=     256KiB time=00:00:03.13 bitrate= 669.4kbits/s speed=0.0255x elapsed=0:02:03.00    \nframe=   97 fps=0.8 q=43.4 size=     256KiB time=00:00:03.16 bitrate= 662.4kbits/s speed=0.0256x elapsed=0:02:03.53    \nframe=   97 fps=0.8 q=43.4 size=     256KiB time=00:00:03.16 bitrate= 662.4kbits/s speed=0.0255x elapsed=0:02:04.09    \nframe=   97 fps=0.8 q=43.4 size=     256KiB time=00:00:03.16 bitrate= 662.4kbits/s speed=0.0254x elapsed=0:02:04.66    \nframe=   97 fps=0.8 q=43.4 size=     256KiB time=00:00:03.16 bitrate= 662.4kbits/s speed=0.0253x elapsed=0:02:05.22    \nframe=   98 fps=0.8 q=39.6 size=     256KiB time=00:00:03.20 bitrate= 655.5kbits/s speed=0.0254x elapsed=0:02:05.74    \nframe=   98 fps=0.8 q=39.6 size=     256KiB time=00:00:03.20 bitrate= 655.5kbits/s speed=0.0253x elapsed=0:02:06.27    \nframe=   99 fps=0.8 q=42.0 size=     256KiB time=00:00:03.23 bitrate= 648.7kbits/s speed=0.0255x elapsed=0:02:06.78    \nframe=   99 fps=0.8 q=42.0 size=     256KiB time=00:00:03.23 bitrate= 648.7kbits/s speed=0.0254x elapsed=0:02:07.30    \nframe=  100 fps=0.8 q=43.8 size=     256KiB time=00:00:03.26 bitrate= 642.1kbits/s speed=0.0256x elapsed=0:02:07.81    \nframe=  101 fps=0.8 q=44.2 size=     256KiB time=00:00:03.30 bitrate= 635.6kbits/s speed=0.0257x elapsed=0:02:08.33    \nframe=  102 fps=0.8 q=39.4 size=     256KiB time=00:00:03.33 bitrate= 629.3kbits/s speed=0.0259x elapsed=0:02:08.85    \nframe=  103 fps=0.8 q=42.5 size=     256KiB time=00:00:03.36 bitrate= 623.0kbits/s speed=0.026x elapsed=0:02:09.37    \nframe=  103 fps=0.8 q=42.5 size=     256KiB time=00:00:03.36 bitrate= 623.0kbits/s speed=0.0259x elapsed=0:02:09.87    \nframe=  105 fps=0.8 q=39.4 size=     256KiB time=00:00:03.43 bitrate= 610.9kbits/s speed=0.0263x elapsed=0:02:10.40    \nframe=  106 fps=0.8 q=41.6 size=     256KiB time=00:00:03.46 bitrate= 605.0kbits/s speed=0.0265x elapsed=0:02:10.90    \nframe=  107 fps=0.8 q=43.6 size=     256KiB time=00:00:03.50 bitrate= 599.3kbits/s speed=0.0266x elapsed=0:02:11.43    \nframe=  108 fps=0.8 q=39.1 size=     256KiB time=00:00:03.53 bitrate= 593.6kbits/s speed=0.0268x elapsed=0:02:11.95    \nframe=  108 fps=0.8 q=39.1 size=     256KiB time=00:00:03.53 bitrate= 593.6kbits/s speed=0.0267x elapsed=0:02:12.46    \nframe=  108 fps=0.8 q=39.1 size=     256KiB time=00:00:03.53 bitrate= 593.6kbits/s speed=0.0266x elapsed=0:02:12.97    \nframe=  109 fps=0.8 q=42.4 size=     256KiB time=00:00:03.56 bitrate= 588.1kbits/s speed=0.0267x elapsed=0:02:13.49    \nframe=  109 fps=0.8 q=42.4 size=     256KiB time=00:00:03.56 bitrate= 588.1kbits/s speed=0.0266x elapsed=0:02:14.04    \nframe=  109 fps=0.8 q=42.4 size=     256KiB time=00:00:03.56 bitrate= 588.1kbits/s speed=0.0265x elapsed=0:02:14.55    \nframe=  111 fps=0.8 q=44.3 size=     256KiB time=00:00:03.63 bitrate= 577.3kbits/s speed=0.0269x elapsed=0:02:15.06    \nframe=  111 fps=0.8 q=44.3 size=     256KiB time=00:00:03.63 bitrate= 577.3kbits/s speed=0.0268x elapsed=0:02:15.59    \nframe=  111 fps=0.8 q=44.3 size=     256KiB time=00:00:03.63 bitrate= 577.3kbits/s speed=0.0267x elapsed=0:02:16.12    \nframe=  113 fps=0.8 q=42.0 size=     256KiB time=00:00:03.70 bitrate= 566.9kbits/s speed=0.0271x elapsed=0:02:16.65    \nframe=  113 fps=0.8 q=42.0 size=     256KiB time=00:00:03.70 bitrate= 566.9kbits/s speed=0.027x elapsed=0:02:17.18    \nframe=  114 fps=0.8 q=44.0 size=     256KiB time=00:00:03.73 bitrate= 561.8kbits/s speed=0.0271x elapsed=0:02:17.71    \nframe=  114 fps=0.8 q=44.0 size=     256KiB time=00:00:03.73 bitrate= 561.8kbits/s speed=0.027x elapsed=0:02:18.23    \nframe=  114 fps=0.8 q=44.0 size=     256KiB time=00:00:03.73 bitrate= 561.8kbits/s speed=0.0269x elapsed=0:02:18.74    \nframe=  115 fps=0.8 q=43.9 size=     256KiB time=00:00:03.73 bitrate= 561.8kbits/s speed=0.0268x elapsed=0:02:19.25    \nframe=  115 fps=0.8 q=43.9 size=     256KiB time=00:00:03.76 bitrate= 556.9kbits/s speed=0.0269x elapsed=0:02:19.78    \nframe=  115 fps=0.8 q=43.9 size=     256KiB time=00:00:03.76 bitrate= 556.9kbits/s speed=0.0268x elapsed=0:02:20.30    \nframe=  116 fps=0.8 q=39.8 size=     256KiB time=00:00:03.80 bitrate= 552.0kbits/s speed=0.027x elapsed=0:02:20.83    \nframe=  117 fps=0.8 q=42.0 size=     256KiB time=00:00:03.80 bitrate= 552.0kbits/s speed=0.0269x elapsed=0:02:21.35    \nframe=  117 fps=0.8 q=42.0 size=     256KiB time=00:00:03.83 bitrate= 547.2kbits/s speed=0.027x elapsed=0:02:21.86    \nframe=  117 fps=0.8 q=42.0 size=     256KiB time=00:00:03.83 bitrate= 547.2kbits/s speed=0.0269x elapsed=0:02:22.39    \nframe=  118 fps=0.8 q=44.0 size=     256KiB time=00:00:03.86 bitrate= 542.5kbits/s speed=0.0271x elapsed=0:02:22.93    \nframe=  119 fps=0.8 q=43.8 size=     256KiB time=00:00:03.90 bitrate= 537.8kbits/s speed=0.0272x elapsed=0:02:23.46    \nframe=  119 fps=0.8 q=43.8 size=     256KiB time=00:00:03.90 bitrate= 537.8kbits/s speed=0.0271x elapsed=0:02:23.99    \nframe=  120 fps=0.8 q=39.5 size=     256KiB time=00:00:03.93 bitrate= 533.3kbits/s speed=0.0272x elapsed=0:02:24.53    \nframe=  120 fps=0.8 q=39.5 size=     256KiB time=00:00:03.93 bitrate= 533.3kbits/s speed=0.0271x elapsed=0:02:25.07    \nframe=  120 fps=0.8 q=39.5 size=     256KiB time=00:00:03.93 bitrate= 533.3kbits/s speed=0.027x elapsed=0:02:25.58    \nframe=  121 fps=0.8 q=44.2 size=     256KiB time=00:00:03.96 bitrate= 528.8kbits/s speed=0.0271x elapsed=0:02:26.13    \nframe=  121 fps=0.8 q=44.2 size=     256KiB time=00:00:03.96 bitrate= 528.8kbits/s speed=0.027x elapsed=0:02:26.66    \nframe=  122 fps=0.8 q=38.9 size=     256KiB time=00:00:04.00 bitrate= 524.4kbits/s speed=0.0272x elapsed=0:02:27.18    \nframe=  123 fps=0.8 q=42.5 size=     256KiB time=00:00:04.03 bitrate= 520.0kbits/s speed=0.0273x elapsed=0:02:27.70    \nframe=  123 fps=0.8 q=42.5 size=     256KiB time=00:00:04.03 bitrate= 520.0kbits/s speed=0.0272x elapsed=0:02:28.22    \nframe=  124 fps=0.8 q=44.8 size=     256KiB time=00:00:04.06 bitrate= 515.8kbits/s speed=0.0273x elapsed=0:02:28.76    \nframe=  125 fps=0.8 q=44.5 size=     512KiB time=00:00:04.10 bitrate=1023.1kbits/s speed=0.0275x elapsed=0:02:29.29    \nframe=  126 fps=0.8 q=39.2 size=     512KiB time=00:00:04.13 bitrate=1014.8kbits/s speed=0.0276x elapsed=0:02:29.80    \nframe=  126 fps=0.8 q=39.2 size=     512KiB time=00:00:04.13 bitrate=1014.8kbits/s speed=0.0275x elapsed=0:02:30.32    \nframe=  126 fps=0.8 q=39.2 size=     512KiB time=00:00:04.13 bitrate=1014.8kbits/s speed=0.0274x elapsed=0:02:30.85    \nframe=  126 fps=0.8 q=39.2 size=     512KiB time=00:00:04.13 bitrate=1014.8kbits/s speed=0.0273x elapsed=0:02:31.39    \nframe=  127 fps=0.8 q=42.1 size=     512KiB time=00:00:04.16 bitrate=1006.7kbits/s speed=0.0274x elapsed=0:02:31.91    \nframe=  128 fps=0.8 q=44.1 size=     512KiB time=00:00:04.20 bitrate= 998.7kbits/s speed=0.0276x elapsed=0:02:32.43    \nframe=  128 fps=0.8 q=44.1 size=     512KiB time=00:00:04.20 bitrate= 998.7kbits/s speed=0.0275x elapsed=0:02:32.95    \nframe=  128 fps=0.8 q=44.1 size=     512KiB time=00:00:04.20 bitrate= 998.7kbits/s speed=0.0274x elapsed=0:02:33.45    \nframe=  129 fps=0.8 q=44.0 size=     512KiB time=00:00:04.23 bitrate= 990.9kbits/s speed=0.0275x elapsed=0:02:33.97    \nframe=  129 fps=0.8 q=44.0 size=     512KiB time=00:00:04.23 bitrate= 990.9kbits/s speed=0.0274x elapsed=0:02:34.48    \nframe=  129 fps=0.8 q=44.0 size=     512KiB time=00:00:04.23 bitrate= 990.9kbits/s speed=0.0273x elapsed=0:02:35.00    \nframe=  130 fps=0.8 q=39.4 size=     512KiB time=00:00:04.26 bitrate= 983.1kbits/s speed=0.0274x elapsed=0:02:35.54    \nframe=  130 fps=0.8 q=39.4 size=     512KiB time=00:00:04.26 bitrate= 983.1kbits/s speed=0.0273x elapsed=0:02:36.04    \nframe=  130 fps=0.8 q=39.4 size=     512KiB time=00:00:04.26 bitrate= 983.1kbits/s speed=0.0273x elapsed=0:02:36.57    \nframe=  131 fps=0.8 q=42.8 size=     512KiB time=00:00:04.30 bitrate= 975.5kbits/s speed=0.0274x elapsed=0:02:37.09    \nframe=  131 fps=0.8 q=42.8 size=     512KiB time=00:00:04.30 bitrate= 975.5kbits/s speed=0.0273x elapsed=0:02:37.59    \nframe=  132 fps=0.8 q=44.5 size=     512KiB time=00:00:04.33 bitrate= 968.0kbits/s speed=0.0274x elapsed=0:02:38.11    \nframe=  133 fps=0.8 q=44.7 size=     512KiB time=00:00:04.36 bitrate= 960.6kbits/s speed=0.0275x elapsed=0:02:38.65    \nframe=  133 fps=0.8 q=44.7 size=     512KiB time=00:00:04.36 bitrate= 960.6kbits/s speed=0.0274x elapsed=0:02:39.17    \nframe=  133 fps=0.8 q=44.7 size=     512KiB time=00:00:04.36 bitrate= 960.6kbits/s speed=0.0273x elapsed=0:02:39.69    \nframe=  134 fps=0.8 q=39.6 size=     512KiB time=00:00:04.40 bitrate= 953.3kbits/s speed=0.0275x elapsed=0:02:40.21    \nframe=  134 fps=0.8 q=39.6 size=     512KiB time=00:00:04.40 bitrate= 953.3kbits/s speed=0.0274x elapsed=0:02:40.74    \nframe=  134 fps=0.8 q=39.6 size=     512KiB time=00:00:04.40 bitrate= 953.3kbits/s speed=0.0273x elapsed=0:02:41.29    \nframe=  134 fps=0.8 q=39.6 size=     512KiB time=00:00:04.40 bitrate= 953.3kbits/s speed=0.0272x elapsed=0:02:41.86    \nframe=  134 fps=0.8 q=39.6 size=     512KiB time=00:00:04.40 bitrate= 953.3kbits/s speed=0.0271x elapsed=0:02:42.40    \nframe=  134 fps=0.8 q=39.6 size=     512KiB time=00:00:04.40 bitrate= 953.3kbits/s speed=0.027x elapsed=0:02:42.94    \nframe=  134 fps=0.8 q=39.6 size=     512KiB time=00:00:04.40 bitrate= 953.3kbits/s speed=0.0269x elapsed=0:02:43.53    \nframe=  134 fps=0.8 q=39.6 size=     512KiB time=00:00:04.40 bitrate= 953.3kbits/s speed=0.0268x elapsed=0:02:44.16    \nframe=  134 fps=0.8 q=39.6 size=     512KiB time=00:00:04.40 bitrate= 953.3kbits/s speed=0.0267x elapsed=0:02:44.73    \nframe=  134 fps=0.8 q=39.6 size=     512KiB time=00:00:04.40 bitrate= 953.3kbits/s speed=0.0266x elapsed=0:02:45.28    \nframe=  134 fps=0.8 q=39.6 size=     512KiB time=00:00:04.40 bitrate= 953.3kbits/s speed=0.0265x elapsed=0:02:45.83    \nframe=  135 fps=0.8 q=42.5 size=     512KiB time=00:00:04.43 bitrate= 946.2kbits/s speed=0.0266x elapsed=0:02:46.36    \nframe=  135 fps=0.8 q=42.5 size=     512KiB time=00:00:04.43 bitrate= 946.2kbits/s speed=0.0266x elapsed=0:02:46.87    \nframe=  136 fps=0.8 q=44.3 size=     512KiB time=00:00:04.46 bitrate= 939.1kbits/s speed=0.0267x elapsed=0:02:47.41    \nframe=  136 fps=0.8 q=44.3 size=     512KiB time=00:00:04.46 bitrate= 939.1kbits/s speed=0.0266x elapsed=0:02:47.98    \nframe=  137 fps=0.8 q=44.8 size=     512KiB time=00:00:04.50 bitrate= 932.1kbits/s speed=0.0267x elapsed=0:02:48.51    \nframe=  137 fps=0.8 q=44.8 size=     512KiB time=00:00:04.50 bitrate= 932.1kbits/s speed=0.0266x elapsed=0:02:49.04    \nframe=  138 fps=0.8 q=39.5 size=     512KiB time=00:00:04.53 bitrate= 925.3kbits/s speed=0.0267x elapsed=0:02:49.55    \nframe=  139 fps=0.8 q=42.6 size=     512KiB time=00:00:04.56 bitrate= 918.5kbits/s speed=0.0269x elapsed=0:02:50.06    \nframe=  140 fps=0.8 q=44.3 size=     512KiB time=00:00:04.60 bitrate= 911.9kbits/s speed=0.027x elapsed=0:02:50.58    \nframe=  141 fps=0.8 q=44.7 size=     512KiB time=00:00:04.63 bitrate= 905.3kbits/s speed=0.0271x elapsed=0:02:51.10    \nframe=  141 fps=0.8 q=44.7 size=     512KiB time=00:00:04.63 bitrate= 905.3kbits/s speed=0.027x elapsed=0:02:51.62    \nframe=  141 fps=0.8 q=44.7 size=     512KiB time=00:00:04.63 bitrate= 905.3kbits/s speed=0.0269x elapsed=0:02:52.14    \nframe=  142 fps=0.8 q=40.2 size=     512KiB time=00:00:04.66 bitrate= 898.9kbits/s speed=0.027x elapsed=0:02:52.66    \nframe=  142 fps=0.8 q=40.2 size=     512KiB time=00:00:04.66 bitrate= 898.9kbits/s speed=0.0269x elapsed=0:02:53.17    \nframe=  143 fps=0.8 q=42.4 size=     512KiB time=00:00:04.70 bitrate= 892.5kbits/s speed=0.0271x elapsed=0:02:53.70    \nframe=  144 fps=0.8 q=44.5 size=     512KiB time=00:00:04.73 bitrate= 886.2kbits/s speed=0.0272x elapsed=0:02:54.22    \nframe=  144 fps=0.8 q=44.5 size=     512KiB time=00:00:04.73 bitrate= 886.2kbits/s speed=0.0271x elapsed=0:02:54.76    \nframe=  144 fps=0.8 q=44.5 size=     512KiB time=00:00:04.73 bitrate= 886.2kbits/s speed=0.027x elapsed=0:02:55.32    \nframe=  145 fps=0.8 q=44.7 size=     512KiB time=00:00:04.76 bitrate= 880.0kbits/s speed=0.0271x elapsed=0:02:55.84    \nframe=  146 fps=0.8 q=44.5 size=     512KiB time=00:00:04.80 bitrate= 873.9kbits/s speed=0.0272x elapsed=0:02:56.37    \nframe=  146 fps=0.8 q=44.5 size=     512KiB time=00:00:04.80 bitrate= 873.9kbits/s speed=0.0271x elapsed=0:02:56.88    \nframe=  147 fps=0.8 q=41.5 size=     512KiB time=00:00:04.83 bitrate= 867.9kbits/s speed=0.0272x elapsed=0:02:57.41    \nframe=  148 fps=0.8 q=42.3 size=     512KiB time=00:00:04.86 bitrate= 861.9kbits/s speed=0.0274x elapsed=0:02:57.93    \nframe=  149 fps=0.8 q=44.4 size=     512KiB time=00:00:04.90 bitrate= 856.1kbits/s speed=0.0275x elapsed=0:02:58.46    \n[mp4 @ 000002bca95bc680] Starting second pass: moving the moov atom to the beginning of the file\n[out#0/mp4 @ 000002bca95bc580] video:608KiB audio:0KiB subtitle:0KiB other streams:0KiB global headers:2KiB muxing overhead: 0.850064%\nframe=  150 fps=0.8 q=43.8 Lsize=     614KiB time=00:00:04.93 bitrate=1018.9kbits/s speed=0.0276x elapsed=0:02:59.00    \nx265 [info]: frame I:      1, Avg QP:41.61  kb/s: 2590.32 \nx265 [info]: frame P:     42, Avg QP:39.76  kb/s: 1605.19 \nx265 [info]: frame B:    107, Avg QP:43.11  kb/s: 741.78  \nx265 [info]: Weighted P-Frames: Y:11.9% UV:9.5%\n\nencoded 150 frames in 178.63s (0.84 fps), 995.86 kb/s, Avg QP:42.16\n",
  "seconds": 179.52147269248962,
  "probe_out": {}
}